# xmcd CD database file
# Copyright (C) 1993-1996 Ti Kan
#
# Track frame offsets:
#	183
#	15993
#	31710
#	44758
#	63260
#	78133
#	91815
#	108728
#	121530
#	134575
#	151325
#	163620
#	177825
#
# Disc length: 2439 seconds
#
# Revision: 1
# Processed by: cddbd v1.4b41PL1 Copyright (c) Steve Scherf et al.
# Submitted via: CDValet v3.30 - Copyright (c) 1997 Greg Leichner
#
DISCID=9509850d
DTITLE=John Brack - High Moon
DYEAR=1900
DGENRE=
TTITLE0=Hot Shot
TTITLE1=When you walk by my side
TTITLE2=I'm always gonna love you
TTITLE3=Nashville moon
TTITLE4=Somebody lock the door
TTITLE5=Pick-up truck
TTITLE6=There's a bad case of lonely goin' 'round
TTITLE7=Close enough to Friday
TTITLE8=Last chance for a lonely heart
TTITLE9=Win, lose, or crawl
TTITLE10=Don't know when I'll love again like this
TTITLE11=I'd stop to tell her lies
TTITLE12=I'd stop to tell her lies reprise
EXTD=
EXTT0=
EXTT1=
EXTT2=
EXTT3=
EXTT4=
EXTT5=
EXTT6=
EXTT7=
EXTT8=
EXTT9=
EXTT10=
EXTT11=
EXTT12=
PLAYORDER=
